<?xml version="1.0" encoding="iso-8859-1"?>
<!-- Generator: Adobe Illustrator 19.0.0, SVG Export Plug-In . SVG Version: 6.00 Build 0)  -->
<svg version="1.1" id="Capa_1" xmlns="http://www.w3.org/2000/svg" xmlns:xlink="http://www.w3.org/1999/xlink" x="0px" y="0px"
	 viewBox="0 0 491.522 491.522" style="enable-background:new 0 0 491.522 491.522;" xml:space="preserve">
<circle style="fill:#334D5C;" cx="245.76" cy="245.761" r="245.76"/>
<path style="opacity:0.1;enable-background:new    ;" d="M353.536,104.961h-41.574c-4.25,0-7.68,3.43-7.68,7.68
	c0,1.638,0.512,3.174,1.383,4.403l0.205,0.205l1.536,1.536l16.384,16.384l-74.906,86.118l-53.862-47.257
	c-3.072-2.714-7.731-2.509-10.598,0.461l-64.973,67.891c-2.918,3.072-2.816,7.936,0.256,10.854l42.547,42.547
	c-3.84-0.461-7.885-0.717-12.032-0.717c-24.986,0-45.261,8.55-45.261,19.046v15.565c0,0.563,0.103,1.126,0.205,1.689
	c-0.102,0.563-0.205,1.075-0.205,1.69v15.565c0,0.563,0.103,1.127,0.205,1.638c-0.102,0.563-0.205,1.127-0.205,1.69v15.565
	c0,3.379,2.099,6.554,5.786,9.318c0,0,0.051,0.051,0.103,0.102c3.214,3.089,67.683,65.098,116.824,113.852
	c5.98,0.436,11.997,0.733,18.088,0.733c135.73,0,245.76-110.031,245.76-245.76c0-2.061-0.105-4.097-0.155-6.146L359.066,107.316
	C357.632,105.883,355.686,104.961,353.536,104.961z"/>
<path style="fill:#F6C358;" d="M386.56,367.522c0,10.515-20.274,19.039-45.283,19.039s-45.283-8.524-45.283-19.039v-15.575h90.565
	L386.56,367.522L386.56,367.522z"/>
<ellipse style="fill:#FCD462;" cx="341.3" cy="351.951" rx="45.28" ry="19.04"/>
<g>
	<path style="fill:#DC8744;" d="M341.277,336.627c-21.826,0-39.52,6.859-39.52,15.32s17.694,15.32,39.52,15.32
		s39.52-6.859,39.52-15.32C380.798,343.486,363.104,336.627,341.277,336.627z M341.277,365.565
		c-19.401,0-35.129-6.097-35.129-13.618s15.728-13.618,35.129-13.618s35.129,6.097,35.129,13.618
		C376.406,359.468,360.678,365.565,341.277,365.565z"/>
	<path style="fill:#DC8744;" d="M339.83,362.531v-1.864c-6.02-0.238-11.423-1.166-16.204-2.782l4.808-2.221
		c3.688,1.243,7.483,1.982,11.396,2.221v-4.954c-4.964-0.459-8.598-1.064-10.903-1.813s-3.457-1.86-3.457-3.332
		s1.324-2.676,3.983-3.613c2.659-0.936,6.116-1.446,10.377-1.531v-1.277h4.213v1.302c4.83,0.137,9.396,0.775,13.701,1.916
		l-4.283,2.349c-2.9-0.8-6.036-1.293-9.418-1.482v4.8h0.198c5.049,0.46,8.759,1.082,11.128,1.864
		c2.375,0.783,3.559,1.92,3.559,3.409c0,1.49-1.361,2.703-4.084,3.638c-2.723,0.937-6.32,1.447-10.801,1.532v1.838L339.83,362.531
		L339.83,362.531z M335.183,346.05c-1.12,0.382-1.678,0.859-1.678,1.43c0,0.57,0.44,1.021,1.319,1.353
		c0.874,0.332,2.546,0.651,5.006,0.958v-4.418C337.852,345.441,336.303,345.666,335.183,346.05z M349.05,357.245
		c1.228-0.391,1.844-0.884,1.844-1.48c0-0.595-0.482-1.068-1.447-1.417c-0.97-0.349-2.771-0.676-5.403-0.983v4.595
		C346.15,357.876,347.817,357.637,349.05,357.245z"/>
</g>
<path style="fill:#F6C358;" d="M386.56,348.607c0,10.515-20.274,19.039-45.283,19.039s-45.283-8.524-45.283-19.039v-15.575h90.565
	L386.56,348.607L386.56,348.607z"/>
<ellipse style="fill:#FCD462;" cx="341.3" cy="333.061" rx="45.28" ry="19.04"/>
<g>
	<path style="fill:#DC8744;" d="M341.277,317.712c-21.826,0-39.52,6.859-39.52,15.32s17.694,15.32,39.52,15.32
		s39.52-6.859,39.52-15.32C380.798,324.571,363.104,317.712,341.277,317.712z M341.277,346.65c-19.401,0-35.129-6.097-35.129-13.618
		c0-7.521,15.728-13.618,35.129-13.618s35.129,6.097,35.129,13.618S360.678,346.65,341.277,346.65z"/>
	<path style="fill:#DC8744;" d="M339.83,343.615v-1.864c-6.02-0.238-11.423-1.166-16.204-2.782l4.808-2.221
		c3.688,1.243,7.483,1.982,11.396,2.221v-4.954c-4.964-0.459-8.598-1.064-10.903-1.813s-3.457-1.86-3.457-3.332
		c0-1.472,1.324-2.676,3.983-3.613c2.659-0.936,6.116-1.446,10.377-1.531v-1.277h4.213v1.302c4.83,0.137,9.396,0.775,13.701,1.916
		l-4.283,2.349c-2.9-0.8-6.036-1.293-9.418-1.482v4.8h0.198c5.049,0.46,8.759,1.082,11.128,1.864
		c2.375,0.783,3.559,1.92,3.559,3.409c0,1.49-1.361,2.703-4.084,3.638c-2.723,0.937-6.32,1.447-10.801,1.532v1.838L339.83,343.615
		L339.83,343.615z M335.183,327.135c-1.12,0.382-1.678,0.859-1.678,1.43c0,0.57,0.44,1.021,1.319,1.353
		c0.874,0.332,2.546,0.651,5.006,0.958v-4.418C337.852,326.526,336.303,326.751,335.183,327.135z M349.05,338.33
		c1.228-0.391,1.844-0.884,1.844-1.48c0-0.595-0.482-1.068-1.447-1.417c-0.97-0.349-2.771-0.676-5.403-0.983v4.595
		C346.15,338.961,347.817,338.722,349.05,338.33z"/>
</g>
<path style="fill:#F6C358;" d="M386.56,329.692c0,10.515-20.274,19.039-45.283,19.039s-45.283-8.524-45.283-19.039v-15.575h90.565
	L386.56,329.692L386.56,329.692z"/>
<ellipse style="fill:#FCD462;" cx="341.3" cy="314.111" rx="45.28" ry="19.04"/>
<g>
	<path style="fill:#DC8744;" d="M341.277,298.797c-21.826,0-39.52,6.859-39.52,15.32s17.694,15.32,39.52,15.32
		s39.52-6.859,39.52-15.32C380.798,305.656,363.104,298.797,341.277,298.797z M341.277,327.735
		c-19.401,0-35.129-6.097-35.129-13.618c0-7.521,15.728-13.618,35.129-13.618s35.129,6.097,35.129,13.618
		C376.406,321.638,360.678,327.735,341.277,327.735z"/>
	<path style="fill:#DC8744;" d="M339.83,324.7v-1.864c-6.02-0.238-11.423-1.166-16.204-2.782l4.808-2.221
		c3.688,1.243,7.483,1.982,11.396,2.221V315.1c-4.964-0.459-8.598-1.064-10.903-1.813s-3.457-1.86-3.457-3.332
		s1.324-2.676,3.983-3.613c2.659-0.936,6.116-1.446,10.377-1.531v-1.277h4.213v1.302c4.83,0.137,9.396,0.775,13.701,1.916
		l-4.283,2.349c-2.9-0.8-6.036-1.293-9.418-1.482v4.8h0.198c5.049,0.46,8.759,1.082,11.128,1.864
		c2.375,0.783,3.559,1.92,3.559,3.409c0,1.49-1.361,2.703-4.084,3.638c-2.723,0.937-6.32,1.447-10.801,1.532v1.838L339.83,324.7
		L339.83,324.7z M335.183,308.22c-1.12,0.382-1.678,0.859-1.678,1.43s0.44,1.021,1.319,1.353c0.874,0.332,2.546,0.651,5.006,0.958
		v-4.418C337.852,307.611,336.303,307.836,335.183,308.22z M349.05,319.415c1.228-0.391,1.844-0.884,1.844-1.48
		c0-0.595-0.482-1.068-1.447-1.417c-0.97-0.349-2.771-0.676-5.403-0.983v4.595C346.15,320.046,347.817,319.807,349.05,319.415z"/>
</g>
<path style="fill:#F6C358;" d="M386.56,310.777c0,10.515-20.274,19.039-45.283,19.039s-45.283-8.524-45.283-19.039v-15.575h90.565
	L386.56,310.777L386.56,310.777z"/>
<ellipse style="fill:#FCD462;" cx="341.3" cy="295.201" rx="45.28" ry="19.04"/>
<g>
	<path style="fill:#DC8744;" d="M341.277,279.882c-21.826,0-39.52,6.859-39.52,15.32s17.694,15.32,39.52,15.32
		s39.52-6.859,39.52-15.32C380.798,286.741,363.104,279.882,341.277,279.882z M341.277,308.82c-19.401,0-35.129-6.097-35.129-13.618
		s15.728-13.618,35.129-13.618s35.129,6.097,35.129,13.618S360.678,308.82,341.277,308.82z"/>
	<path style="fill:#DC8744;" d="M339.83,305.785v-1.864c-6.02-0.238-11.423-1.166-16.204-2.782l4.808-2.221
		c3.688,1.243,7.483,1.982,11.396,2.221v-4.954c-4.964-0.459-8.598-1.064-10.903-1.813s-3.457-1.86-3.457-3.332
		s1.324-2.676,3.983-3.613c2.659-0.936,6.116-1.446,10.377-1.531v-1.277h4.213v1.302c4.83,0.137,9.396,0.775,13.701,1.916
		l-4.283,2.349c-2.9-0.8-6.036-1.293-9.418-1.482v4.8h0.198c5.049,0.46,8.759,1.082,11.128,1.864
		c2.375,0.783,3.559,1.92,3.559,3.409c0,1.49-1.361,2.703-4.084,3.638c-2.723,0.937-6.32,1.447-10.801,1.532v1.838L339.83,305.785
		L339.83,305.785z M335.183,289.304c-1.12,0.382-1.678,0.859-1.678,1.43s0.44,1.021,1.319,1.353
		c0.874,0.332,2.546,0.651,5.006,0.958v-4.418C337.852,288.696,336.303,288.921,335.183,289.304z M349.05,300.5
		c1.228-0.391,1.844-0.884,1.844-1.48c0-0.595-0.482-1.068-1.447-1.417c-0.97-0.349-2.771-0.676-5.403-0.983v4.595
		C346.15,301.131,347.817,300.892,349.05,300.5z"/>
</g>
<path style="fill:#F6C358;" d="M386.56,291.861c0,10.515-20.274,19.039-45.283,19.039s-45.283-8.524-45.283-19.039v-15.575h90.565
	L386.56,291.861L386.56,291.861z"/>
<ellipse style="fill:#FCD462;" cx="341.3" cy="276.291" rx="45.28" ry="19.04"/>
<g>
	<path style="fill:#DC8744;" d="M341.277,260.967c-21.826,0-39.52,6.859-39.52,15.32s17.694,15.32,39.52,15.32
		s39.52-6.859,39.52-15.32C380.798,267.826,363.104,260.967,341.277,260.967z M341.277,289.905
		c-19.401,0-35.129-6.097-35.129-13.618c0-7.521,15.728-13.618,35.129-13.618s35.129,6.097,35.129,13.618
		S360.678,289.905,341.277,289.905z"/>
	<path style="fill:#DC8744;" d="M339.83,286.87v-1.864c-6.02-0.238-11.423-1.166-16.204-2.782l4.808-2.221
		c3.688,1.243,7.483,1.982,11.396,2.221v-4.954c-4.964-0.459-8.598-1.064-10.903-1.813s-3.457-1.86-3.457-3.332
		s1.324-2.676,3.983-3.613c2.659-0.936,6.116-1.446,10.377-1.531v-1.277h4.213v1.302c4.83,0.137,9.396,0.775,13.701,1.916
		l-4.283,2.349c-2.9-0.8-6.036-1.293-9.418-1.482v4.8h0.198c5.049,0.46,8.759,1.082,11.128,1.864
		c2.375,0.783,3.559,1.92,3.559,3.409c0,1.49-1.361,2.703-4.084,3.638c-2.723,0.937-6.32,1.447-10.801,1.532v1.838L339.83,286.87
		L339.83,286.87z M335.183,270.389c-1.12,0.382-1.678,0.859-1.678,1.43s0.44,1.021,1.319,1.353c0.874,0.332,2.546,0.651,5.006,0.958
		v-4.418C337.852,269.781,336.303,270.006,335.183,270.389z M349.05,281.585c1.228-0.391,1.844-0.884,1.844-1.48
		c0-0.595-0.482-1.068-1.447-1.417c-0.97-0.349-2.771-0.676-5.403-0.983v4.595C346.15,282.216,347.817,281.977,349.05,281.585z"/>
</g>
<path style="fill:#F6C358;" d="M386.56,272.946c0,10.515-20.274,19.039-45.283,19.039s-45.283-8.524-45.283-19.039v-15.575h90.565
	L386.56,272.946L386.56,272.946z"/>
<ellipse style="fill:#FCD462;" cx="341.3" cy="257.381" rx="45.28" ry="19.04"/>
<g>
	<path style="fill:#DC8744;" d="M341.277,242.052c-21.826,0-39.52,6.859-39.52,15.32c0,8.461,17.694,15.32,39.52,15.32
		s39.52-6.859,39.52-15.32C380.798,248.911,363.104,242.052,341.277,242.052z M341.277,270.989
		c-19.401,0-35.129-6.097-35.129-13.618s15.728-13.618,35.129-13.618s35.129,6.097,35.129,13.618
		C376.406,264.893,360.678,270.989,341.277,270.989z"/>
	<path style="fill:#DC8744;" d="M339.83,267.955v-1.864c-6.02-0.238-11.423-1.166-16.204-2.782l4.808-2.221
		c3.688,1.243,7.483,1.982,11.396,2.221v-4.954c-4.964-0.459-8.598-1.064-10.903-1.813s-3.457-1.86-3.457-3.332
		s1.324-2.676,3.983-3.613c2.659-0.936,6.116-1.446,10.377-1.531v-1.277h4.213v1.302c4.83,0.137,9.396,0.775,13.701,1.916
		l-4.283,2.349c-2.9-0.8-6.036-1.294-9.418-1.482v4.8h0.198c5.049,0.46,8.759,1.082,11.128,1.864
		c2.375,0.783,3.559,1.92,3.559,3.409c0,1.49-1.361,2.703-4.084,3.638c-2.723,0.937-6.32,1.447-10.801,1.532v1.838H339.83z
		 M335.183,251.474c-1.12,0.382-1.678,0.859-1.678,1.43s0.44,1.021,1.319,1.353c0.874,0.332,2.546,0.651,5.006,0.958v-4.418
		C337.852,250.865,336.303,251.091,335.183,251.474z M349.05,262.67c1.228-0.391,1.844-0.884,1.844-1.48
		c0-0.595-0.482-1.068-1.447-1.417c-0.97-0.349-2.771-0.676-5.403-0.983v4.595C346.15,263.3,347.817,263.062,349.05,262.67z"/>
</g>
<path style="fill:#F6C358;" d="M386.56,254.031c0,10.515-20.274,19.039-45.283,19.039s-45.283-8.524-45.283-19.039v-15.575h90.565
	L386.56,254.031L386.56,254.031z"/>
<ellipse style="fill:#FCD462;" cx="341.3" cy="238.451" rx="45.28" ry="19.04"/>
<g>
	<path style="fill:#DC8744;" d="M341.277,223.137c-21.826,0-39.52,6.859-39.52,15.32s17.694,15.32,39.52,15.32
		s39.52-6.859,39.52-15.32C380.798,229.996,363.104,223.137,341.277,223.137z M341.277,252.074
		c-19.401,0-35.129-6.097-35.129-13.618s15.728-13.618,35.129-13.618s35.129,6.097,35.129,13.618S360.678,252.074,341.277,252.074z"
		/>
	<path style="fill:#DC8744;" d="M339.83,249.04v-1.864c-6.02-0.238-11.423-1.166-16.204-2.782l4.808-2.221
		c3.688,1.243,7.483,1.982,11.396,2.221v-4.954c-4.964-0.459-8.598-1.064-10.903-1.813c-2.305-0.749-3.457-1.86-3.457-3.332
		s1.324-2.676,3.983-3.613c2.659-0.936,6.116-1.446,10.377-1.531v-1.277h4.213v1.302c4.83,0.137,9.396,0.775,13.701,1.916
		l-4.283,2.349c-2.9-0.8-6.036-1.293-9.418-1.482v4.8h0.198c5.049,0.46,8.759,1.082,11.128,1.864
		c2.375,0.783,3.559,1.92,3.559,3.409c0,1.49-1.361,2.703-4.084,3.638c-2.723,0.937-6.32,1.447-10.801,1.532v1.838H339.83z
		 M335.183,232.559c-1.12,0.382-1.678,0.859-1.678,1.43c0,0.57,0.44,1.021,1.319,1.353c0.874,0.332,2.546,0.651,5.006,0.958v-4.418
		C337.852,231.95,336.303,232.176,335.183,232.559z M349.05,243.755c1.228-0.391,1.844-0.884,1.844-1.48
		c0-0.595-0.482-1.068-1.447-1.417c-0.97-0.349-2.771-0.676-5.403-0.983v4.595C346.15,244.385,347.817,244.146,349.05,243.755z"/>
</g>
<path style="fill:#F6C358;" d="M386.56,235.116c0,10.515-20.274,19.039-45.283,19.039s-45.283-8.524-45.283-19.039v-15.575h90.565
	L386.56,235.116L386.56,235.116z"/>
<ellipse style="fill:#FCD462;" cx="341.3" cy="219.541" rx="45.28" ry="19.04"/>
<g>
	<path style="fill:#DC8744;" d="M341.277,204.221c-21.826,0-39.52,6.859-39.52,15.32c0,8.461,17.694,15.32,39.52,15.32
		s39.52-6.859,39.52-15.32C380.798,211.08,363.104,204.221,341.277,204.221z M341.277,233.159c-19.401,0-35.129-6.097-35.129-13.618
		s15.728-13.618,35.129-13.618s35.129,6.097,35.129,13.618S360.678,233.159,341.277,233.159z"/>
	<path style="fill:#DC8744;" d="M339.83,230.125v-1.864c-6.02-0.238-11.423-1.166-16.204-2.782l4.808-2.221
		c3.688,1.243,7.483,1.982,11.396,2.221v-4.954c-4.964-0.459-8.598-1.064-10.903-1.813c-2.305-0.749-3.457-1.86-3.457-3.332
		s1.324-2.676,3.983-3.613c2.659-0.936,6.116-1.446,10.377-1.531v-1.277h4.213v1.302c4.83,0.137,9.396,0.775,13.701,1.916
		l-4.283,2.349c-2.9-0.8-6.036-1.293-9.418-1.482v4.8h0.198c5.049,0.46,8.759,1.082,11.128,1.864
		c2.375,0.783,3.559,1.92,3.559,3.409c0,1.49-1.361,2.703-4.084,3.638c-2.723,0.937-6.32,1.447-10.801,1.532v1.838H339.83z
		 M335.183,213.644c-1.12,0.382-1.678,0.859-1.678,1.43c0,0.57,0.44,1.021,1.319,1.353c0.874,0.332,2.546,0.651,5.006,0.958v-4.418
		C337.852,213.035,336.303,213.261,335.183,213.644z M349.05,224.84c1.228-0.391,1.844-0.884,1.844-1.48
		c0-0.595-0.482-1.068-1.447-1.417c-0.97-0.349-2.771-0.676-5.403-0.983v4.595C346.15,225.47,347.817,225.231,349.05,224.84z"/>
</g>
<path style="fill:#F6C358;" d="M291.043,367.522c0,10.515-20.274,19.039-45.283,19.039s-45.283-8.524-45.283-19.039v-15.575h90.565
	v15.575H291.043z"/>
<ellipse style="fill:#FCD462;" cx="245.76" cy="351.951" rx="45.28" ry="19.04"/>
<g>
	<path style="fill:#DC8744;" d="M245.76,336.627c-21.826,0-39.52,6.859-39.52,15.32s17.694,15.32,39.52,15.32
		s39.52-6.859,39.52-15.32C285.28,343.486,267.586,336.627,245.76,336.627z M245.76,365.565c-19.401,0-35.129-6.097-35.129-13.618
		s15.728-13.618,35.129-13.618s35.129,6.097,35.129,13.618C280.889,359.468,265.161,365.565,245.76,365.565z"/>
	<path style="fill:#DC8744;" d="M244.313,362.531v-1.864c-6.02-0.238-11.423-1.166-16.204-2.782l4.808-2.221
		c3.688,1.243,7.483,1.982,11.396,2.221v-4.954c-4.964-0.459-8.598-1.064-10.903-1.813s-3.457-1.86-3.457-3.332
		s1.324-2.676,3.983-3.613c2.659-0.936,6.116-1.446,10.377-1.531v-1.277h4.213v1.302c4.83,0.137,9.396,0.775,13.701,1.916
		l-4.283,2.349c-2.9-0.8-6.036-1.293-9.418-1.482v4.8h0.198c5.049,0.46,8.759,1.082,11.128,1.864
		c2.375,0.783,3.559,1.92,3.559,3.409c0,1.49-1.361,2.703-4.084,3.638c-2.723,0.937-6.32,1.447-10.801,1.532v1.838L244.313,362.531
		L244.313,362.531z M239.665,346.05c-1.12,0.382-1.678,0.859-1.678,1.43c0,0.57,0.44,1.021,1.319,1.353
		c0.874,0.332,2.546,0.651,5.006,0.958v-4.418C242.335,345.441,240.786,345.666,239.665,346.05z M253.532,357.245
		c1.227-0.391,1.844-0.884,1.844-1.48c0-0.595-0.482-1.068-1.447-1.417c-0.97-0.349-2.771-0.676-5.403-0.983v4.595
		C250.632,357.876,252.299,357.637,253.532,357.245z"/>
</g>
<path style="fill:#F6C358;" d="M291.043,348.607c0,10.515-20.274,19.039-45.283,19.039s-45.283-8.524-45.283-19.039v-15.575h90.565
	v15.575H291.043z"/>
<ellipse style="fill:#FCD462;" cx="245.76" cy="333.061" rx="45.28" ry="19.04"/>
<g>
	<path style="fill:#DC8744;" d="M245.76,317.712c-21.826,0-39.52,6.859-39.52,15.32s17.694,15.32,39.52,15.32
		s39.52-6.859,39.52-15.32S267.586,317.712,245.76,317.712z M245.76,346.65c-19.401,0-35.129-6.097-35.129-13.618
		c0-7.521,15.728-13.618,35.129-13.618s35.129,6.097,35.129,13.618S265.161,346.65,245.76,346.65z"/>
	<path style="fill:#DC8744;" d="M244.313,343.615v-1.864c-6.02-0.238-11.423-1.166-16.204-2.782l4.808-2.221
		c3.688,1.243,7.483,1.982,11.396,2.221v-4.954c-4.964-0.459-8.598-1.064-10.903-1.813s-3.457-1.86-3.457-3.332
		c0-1.472,1.324-2.676,3.983-3.613c2.659-0.936,6.116-1.446,10.377-1.531v-1.277h4.213v1.302c4.83,0.137,9.396,0.775,13.701,1.916
		l-4.283,2.349c-2.9-0.8-6.036-1.293-9.418-1.482v4.8h0.198c5.049,0.46,8.759,1.082,11.128,1.864
		c2.375,0.783,3.559,1.92,3.559,3.409c0,1.49-1.361,2.703-4.084,3.638c-2.723,0.937-6.32,1.447-10.801,1.532v1.838L244.313,343.615
		L244.313,343.615z M239.665,327.135c-1.12,0.382-1.678,0.859-1.678,1.43c0,0.57,0.44,1.021,1.319,1.353
		c0.874,0.332,2.546,0.651,5.006,0.958v-4.418C242.335,326.526,240.786,326.751,239.665,327.135z M253.532,338.33
		c1.227-0.391,1.844-0.884,1.844-1.48c0-0.595-0.482-1.068-1.447-1.417c-0.97-0.349-2.771-0.676-5.403-0.983v4.595
		C250.632,338.961,252.299,338.722,253.532,338.33z"/>
</g>
<path style="fill:#F6C358;" d="M291.043,329.692c0,10.515-20.274,19.039-45.283,19.039s-45.283-8.524-45.283-19.039v-15.575h90.565
	v15.575H291.043z"/>
<ellipse style="fill:#FCD462;" cx="245.76" cy="314.111" rx="45.28" ry="19.04"/>
<g>
	<path style="fill:#DC8744;" d="M245.76,298.797c-21.826,0-39.52,6.859-39.52,15.32s17.694,15.32,39.52,15.32
		s39.52-6.859,39.52-15.32S267.586,298.797,245.76,298.797z M245.76,327.735c-19.401,0-35.129-6.097-35.129-13.618
		c0-7.521,15.728-13.618,35.129-13.618s35.129,6.097,35.129,13.618C280.889,321.638,265.161,327.735,245.76,327.735z"/>
	<path style="fill:#DC8744;" d="M244.313,324.7v-1.864c-6.02-0.238-11.423-1.166-16.204-2.782l4.808-2.221
		c3.688,1.243,7.483,1.982,11.396,2.221V315.1c-4.964-0.459-8.598-1.064-10.903-1.813s-3.457-1.86-3.457-3.332
		s1.324-2.676,3.983-3.613c2.659-0.936,6.116-1.446,10.377-1.531v-1.277h4.213v1.302c4.83,0.137,9.396,0.775,13.701,1.916
		l-4.283,2.349c-2.9-0.8-6.036-1.293-9.418-1.482v4.8h0.198c5.049,0.46,8.759,1.082,11.128,1.864
		c2.375,0.783,3.559,1.92,3.559,3.409c0,1.49-1.361,2.703-4.084,3.638c-2.723,0.937-6.32,1.447-10.801,1.532v1.838L244.313,324.7
		L244.313,324.7z M239.665,308.22c-1.12,0.382-1.678,0.859-1.678,1.43s0.44,1.021,1.319,1.353c0.874,0.332,2.546,0.651,5.006,0.958
		v-4.418C242.335,307.611,240.786,307.836,239.665,308.22z M253.532,319.415c1.227-0.391,1.844-0.884,1.844-1.48
		c0-0.595-0.482-1.068-1.447-1.417c-0.97-0.349-2.771-0.676-5.403-0.983v4.595C250.632,320.046,252.299,319.807,253.532,319.415z"/>
</g>
<path style="fill:#F6C358;" d="M291.043,310.777c0,10.515-20.274,19.039-45.283,19.039s-45.283-8.524-45.283-19.039v-15.575h90.565
	v15.575H291.043z"/>
<ellipse style="fill:#FCD462;" cx="245.76" cy="295.201" rx="45.28" ry="19.04"/>
<g>
	<path style="fill:#DC8744;" d="M245.76,279.882c-21.826,0-39.52,6.859-39.52,15.32s17.694,15.32,39.52,15.32
		s39.52-6.859,39.52-15.32C285.28,286.741,267.586,279.882,245.76,279.882z M245.76,308.82c-19.401,0-35.129-6.097-35.129-13.618
		s15.728-13.618,35.129-13.618s35.129,6.097,35.129,13.618S265.161,308.82,245.76,308.82z"/>
	<path style="fill:#DC8744;" d="M244.313,305.785v-1.864c-6.02-0.238-11.423-1.166-16.204-2.782l4.808-2.221
		c3.688,1.243,7.483,1.982,11.396,2.221v-4.954c-4.964-0.459-8.598-1.064-10.903-1.813s-3.457-1.86-3.457-3.332
		s1.324-2.676,3.983-3.613c2.659-0.936,6.116-1.446,10.377-1.531v-1.277h4.213v1.302c4.83,0.137,9.396,0.775,13.701,1.916
		l-4.283,2.349c-2.9-0.8-6.036-1.293-9.418-1.482v4.8h0.198c5.049,0.46,8.759,1.082,11.128,1.864
		c2.375,0.783,3.559,1.92,3.559,3.409c0,1.49-1.361,2.703-4.084,3.638c-2.723,0.937-6.32,1.447-10.801,1.532v1.838L244.313,305.785
		L244.313,305.785z M239.665,289.304c-1.12,0.382-1.678,0.859-1.678,1.43s0.44,1.021,1.319,1.353
		c0.874,0.332,2.546,0.651,5.006,0.958v-4.418C242.335,288.696,240.786,288.921,239.665,289.304z M253.532,300.5
		c1.227-0.391,1.844-0.884,1.844-1.48c0-0.595-0.482-1.068-1.447-1.417c-0.97-0.349-2.771-0.676-5.403-0.983v4.595
		C250.632,301.131,252.299,300.892,253.532,300.5z"/>
</g>
<path style="fill:#F6C358;" d="M291.043,291.861c0,10.515-20.274,19.039-45.283,19.039s-45.283-8.524-45.283-19.039v-15.575h90.565
	v15.575H291.043z"/>
<ellipse style="fill:#FCD462;" cx="245.76" cy="276.291" rx="45.28" ry="19.04"/>
<g>
	<path style="fill:#DC8744;" d="M245.76,260.967c-21.826,0-39.52,6.859-39.52,15.32s17.694,15.32,39.52,15.32
		s39.52-6.859,39.52-15.32S267.586,260.967,245.76,260.967z M245.76,289.905c-19.401,0-35.129-6.097-35.129-13.618
		c0-7.521,15.728-13.618,35.129-13.618s35.129,6.097,35.129,13.618S265.161,289.905,245.76,289.905z"/>
	<path style="fill:#DC8744;" d="M244.313,286.87v-1.864c-6.02-0.238-11.423-1.166-16.204-2.782l4.808-2.221
		c3.688,1.243,7.483,1.982,11.396,2.221v-4.954c-4.964-0.459-8.598-1.064-10.903-1.813s-3.457-1.86-3.457-3.332
		s1.324-2.676,3.983-3.613c2.659-0.936,6.116-1.446,10.377-1.531v-1.277h4.213v1.302c4.83,0.137,9.396,0.775,13.701,1.916
		l-4.283,2.349c-2.9-0.8-6.036-1.293-9.418-1.482v4.8h0.198c5.049,0.46,8.759,1.082,11.128,1.864
		c2.375,0.783,3.559,1.92,3.559,3.409c0,1.49-1.361,2.703-4.084,3.638c-2.723,0.937-6.32,1.447-10.801,1.532v1.838L244.313,286.87
		L244.313,286.87z M239.665,270.389c-1.12,0.382-1.678,0.859-1.678,1.43s0.44,1.021,1.319,1.353
		c0.874,0.332,2.546,0.651,5.006,0.958v-4.418C242.335,269.781,240.786,270.006,239.665,270.389z M253.532,281.585
		c1.227-0.391,1.844-0.884,1.844-1.48c0-0.595-0.482-1.068-1.447-1.417c-0.97-0.349-2.771-0.676-5.403-0.983v4.595
		C250.632,282.216,252.299,281.977,253.532,281.585z"/>
</g>
<path style="fill:#F6C358;" d="M195.525,367.522c0,10.515-20.274,19.039-45.283,19.039s-45.283-8.524-45.283-19.039v-15.575h90.565
	v15.575H195.525z"/>
<ellipse style="fill:#FCD462;" cx="150.24" cy="351.951" rx="45.28" ry="19.04"/>
<g>
	<path style="fill:#DC8744;" d="M150.243,336.627c-21.826,0-39.52,6.859-39.52,15.32s17.694,15.32,39.52,15.32
		s39.52-6.859,39.52-15.32C189.763,343.486,172.069,336.627,150.243,336.627z M150.243,365.565
		c-19.401,0-35.129-6.097-35.129-13.618s15.728-13.618,35.129-13.618s35.129,6.097,35.129,13.618
		C185.372,359.468,169.643,365.565,150.243,365.565z"/>
	<path style="fill:#DC8744;" d="M148.795,362.531v-1.864c-6.02-0.238-11.423-1.166-16.204-2.782l4.808-2.221
		c3.688,1.243,7.483,1.982,11.396,2.221v-4.954c-4.964-0.459-8.598-1.064-10.903-1.813s-3.457-1.86-3.457-3.332
		s1.324-2.676,3.983-3.613c2.659-0.936,6.116-1.446,10.377-1.531v-1.277h4.213v1.302c4.83,0.137,9.396,0.775,13.701,1.916
		l-4.283,2.349c-2.9-0.8-6.036-1.293-9.418-1.482v4.8h0.198c5.049,0.46,8.759,1.082,11.128,1.864
		c2.375,0.783,3.559,1.92,3.559,3.409c0,1.49-1.361,2.703-4.084,3.638c-2.723,0.937-6.32,1.447-10.801,1.532v1.838L148.795,362.531
		L148.795,362.531z M144.148,346.05c-1.12,0.382-1.678,0.859-1.678,1.43c0,0.57,0.44,1.021,1.319,1.353
		c0.874,0.332,2.546,0.651,5.006,0.958v-4.418C146.817,345.441,145.268,345.666,144.148,346.05z M158.015,357.245
		c1.227-0.391,1.844-0.884,1.844-1.48c0-0.595-0.482-1.068-1.447-1.417c-0.97-0.349-2.771-0.676-5.403-0.983v4.595
		C155.115,357.876,156.782,357.637,158.015,357.245z"/>
</g>
<path style="fill:#F6C358;" d="M195.525,348.607c0,10.515-20.274,19.039-45.283,19.039s-45.283-8.524-45.283-19.039v-15.575h90.565
	v15.575H195.525z"/>
<ellipse style="fill:#FCD462;" cx="150.24" cy="333.061" rx="45.28" ry="19.04"/>
<g>
	<path style="fill:#DC8744;" d="M150.243,317.712c-21.826,0-39.52,6.859-39.52,15.32s17.694,15.32,39.52,15.32
		s39.52-6.859,39.52-15.32S172.069,317.712,150.243,317.712z M150.243,346.65c-19.401,0-35.129-6.097-35.129-13.618
		c0-7.521,15.728-13.618,35.129-13.618s35.129,6.097,35.129,13.618S169.643,346.65,150.243,346.65z"/>
	<path style="fill:#DC8744;" d="M148.795,343.615v-1.864c-6.02-0.238-11.423-1.166-16.204-2.782l4.808-2.221
		c3.688,1.243,7.483,1.982,11.396,2.221v-4.954c-4.964-0.459-8.598-1.064-10.903-1.813s-3.457-1.86-3.457-3.332
		c0-1.472,1.324-2.676,3.983-3.613c2.659-0.936,6.116-1.446,10.377-1.531v-1.277h4.213v1.302c4.83,0.137,9.396,0.775,13.701,1.916
		l-4.283,2.349c-2.9-0.8-6.036-1.293-9.418-1.482v4.8h0.198c5.049,0.46,8.759,1.082,11.128,1.864
		c2.375,0.783,3.559,1.92,3.559,3.409c0,1.49-1.361,2.703-4.084,3.638c-2.723,0.937-6.32,1.447-10.801,1.532v1.838L148.795,343.615
		L148.795,343.615z M144.148,327.135c-1.12,0.382-1.678,0.859-1.678,1.43c0,0.57,0.44,1.021,1.319,1.353
		c0.874,0.332,2.546,0.651,5.006,0.958v-4.418C146.817,326.526,145.268,326.751,144.148,327.135z M158.015,338.33
		c1.227-0.391,1.844-0.884,1.844-1.48c0-0.595-0.482-1.068-1.447-1.417c-0.97-0.349-2.771-0.676-5.403-0.983v4.595
		C155.115,338.961,156.782,338.722,158.015,338.33z"/>
</g>
<path style="fill:#F6C358;" d="M195.525,329.692c0,10.515-20.274,19.039-45.283,19.039s-45.283-8.524-45.283-19.039v-15.575h90.565
	v15.575H195.525z"/>
<ellipse style="fill:#FCD462;" cx="150.24" cy="314.111" rx="45.28" ry="19.04"/>
<g>
	<path style="fill:#DC8744;" d="M150.243,298.797c-21.826,0-39.52,6.859-39.52,15.32s17.694,15.32,39.52,15.32
		s39.52-6.859,39.52-15.32S172.069,298.797,150.243,298.797z M150.243,327.735c-19.401,0-35.129-6.097-35.129-13.618
		c0-7.521,15.728-13.618,35.129-13.618s35.129,6.097,35.129,13.618C185.372,321.638,169.643,327.735,150.243,327.735z"/>
	<path style="fill:#DC8744;" d="M148.795,324.7v-1.864c-6.02-0.238-11.423-1.166-16.204-2.782l4.808-2.221
		c3.688,1.243,7.483,1.982,11.396,2.221V315.1c-4.964-0.459-8.598-1.064-10.903-1.813s-3.457-1.86-3.457-3.332
		s1.324-2.676,3.983-3.613c2.659-0.936,6.116-1.446,10.377-1.531v-1.277h4.213v1.302c4.83,0.137,9.396,0.775,13.701,1.916
		l-4.283,2.349c-2.9-0.8-6.036-1.293-9.418-1.482v4.8h0.198c5.049,0.46,8.759,1.082,11.128,1.864
		c2.375,0.783,3.559,1.92,3.559,3.409c0,1.49-1.361,2.703-4.084,3.638c-2.723,0.937-6.32,1.447-10.801,1.532v1.838L148.795,324.7
		L148.795,324.7z M144.148,308.22c-1.12,0.382-1.678,0.859-1.678,1.43s0.44,1.021,1.319,1.353c0.874,0.332,2.546,0.651,5.006,0.958
		v-4.418C146.817,307.611,145.268,307.836,144.148,308.22z M158.015,319.415c1.227-0.391,1.844-0.884,1.844-1.48
		c0-0.595-0.482-1.068-1.447-1.417c-0.97-0.349-2.771-0.676-5.403-0.983v4.595C155.115,320.046,156.782,319.807,158.015,319.415z"/>
</g>
<path style="fill:#44C4A1;" d="M353.512,104.961h-41.57c-4.24,0-7.68,3.44-7.68,7.68s3.44,7.68,7.68,7.68h24.76l-87.825,100.985
	l-53.835-47.29c-3.085-2.715-7.77-2.51-10.62,0.46l-64.96,67.925c-2.93,3.065-2.825,7.93,0.24,10.86c1.49,1.425,3.4,2.13,5.31,2.13
	c2.02,0,4.04-0.795,5.55-2.37l59.87-62.605l54.105,47.525c1.535,1.35,3.6,2.04,5.585,1.895c2.04-0.14,3.94-1.085,5.28-2.625
	l90.43-103.982v20.982c0,4.24,3.44,7.68,7.68,7.68s7.68-3.44,7.68-7.68v-41.57C361.192,108.401,357.752,104.961,353.512,104.961z"/>
<g>
</g>
<g>
</g>
<g>
</g>
<g>
</g>
<g>
</g>
<g>
</g>
<g>
</g>
<g>
</g>
<g>
</g>
<g>
</g>
<g>
</g>
<g>
</g>
<g>
</g>
<g>
</g>
<g>
</g>
</svg>
